#!OML:ASF G:\JayActor3\Patient Classification 1\Patient 1\Session 6\male.ASF
:FULLY-SPECIFIED
:DEGREES
1284
root 3.41273 16.0627 -23.7667 167.212 -75.7761 -173.876
lowerback 4.8552 1.47701 7.38993
upperback -3.85112 2.59406 2.05733
thorax -6.5474 0.94823 -2.23994
lowerneck -4.54448 1.03868 4.34643
upperneck 22.6563 3.21758 -15.2174
head 7.98611 0.147159 -5.68163
rclavicle -2.98177e-014 -1.35174e-014
rhumerus -21.839 23.2176 -65.2308
rradius 85.7214
rwrist -40.5635
rhand -24.5137 1.73548
rfingers 7.12502
rthumb 1.98127 -28.2351
lclavicle -2.98177e-014 -1.35174e-014
lhumerus -41.9421 -13.3862 87.0316
lradius 29.0713
lwrist 20.4148
lhand -7.23316 9.52569
lfingers 7.12502
lthumb 18.6466 38.652
rfemur -8.22791 1.37254 22.3772
rtibia 40.9728
rfoot -27.8955 -12.7955
rtoes 5.47151
lfemur 1.04281 8.28487 -10.6467
ltibia 28.1301
lfoot -19.2602 -4.68088
ltoes -2.54146
1285
root 3.39991 16.071 -23.7516 167.439 -75.3402 -174.016
lowerback 4.80232 1.45229 7.28239
upperback -3.90614 2.54799 2.00466
thorax -6.58091 0.927055 -2.23006
lowerneck -4.55239 1.12361 4.38877
upperneck 22.5085 3.30413 -15.1226
head 7.94733 0.208531 -5.64179
rclavicle -1.23246e-014 4.53229e-014
rhumerus -21.3835 24.0022 -65.0604
rradius 85.8619
rwrist -40.8645
rhand -24.4992 1.50971
rfingers 7.12502
rthumb 1.99526 -28.4607
lclavicle -1.23246e-014 4.53229e-014
lhumerus -41.9015 -13.4717 86.8703
lradius 29.0674
lwrist 20.4293
lhand -7.23092 9.50679
lfingers 7.12502
lthumb 18.6487 38.6329
rfemur -8.24658 1.66613 22.356
rtibia 40.8122
rfoot -27.745 -12.6777
rtoes 5.46317
lfemur 1.12946 8.24325 -10.6252
ltibia 28.0691
lfoot -18.984 -4.81528
ltoes -2.44071
1286
root 3.38756 16.0794 -23.7356 167.586 -74.9149 -174.077
lowerback 4.75914 1.42462 7.19466
upperback -3.95873 2.50047 1.95876
thorax -6.61718 0.904287 -2.22419
lowerneck -4.55636 1.20348 4.43431
upperneck 22.3454 3.38474 -15.0414
head 7.90222 0.267021 -5.6072
rclavicle 1.72943e-014 2.38542e-014
rhumerus -20.9294 24.7756 -64.866
rradius 86.0153
rwrist -41.1492
rhand -24.4841 1.32893
rfingers 7.12502
rthumb 2.0098 -28.6413
lclavicle 1.72943e-014 2.38542e-014
lhumerus -41.8468 -13.5596 86.7161
lradius 29.0499
lwrist 20.4157
lhand -7.24384 9.47478
lfingers 7.12502
lthumb 18.6363 38.6021
rfemur -8.26035 1.93595 22.3438
rtibia 40.6445
rfoot -27.5886 -12.5499
rtoes 5.44621
lfemur 1.20696 8.13924 -10.5977
ltibia 28.0163
lfoot -18.7443 -4.96445
ltoes -2.27559
1287
root 3.37553 16.0874 -23.7185 167.708 -74.4998 -174.119
lowerback 4.73058 1.39543 7.1175
upperback -4.00933 2.45312 1.91573
thorax -6.65952 0.88101 -2.2216
lowerneck -4.55432 1.27988 4.4732
upperneck 22.168 3.46082 -14.9627
head 7.85076 0.323508 -5.5721
rclavicle -3.26007e-014 -4.53229e-014
rhumerus -20.4744 25.5392 -64.6484
rradius 86.1748
rwrist -41.4233
rhand -24.5086 1.18079
rfingers 7.12502
rthumb 1.98613 -28.7897
lclavicle -3.26007e-014 -4.53229e-014
lhumerus -41.7879 -13.656 86.5727
lradius 29.0311
lwrist 20.3901
lhand -7.26966 9.42812
lfingers 7.12502
lthumb 18.6115 38.5578
rfemur -8.26914 2.17684 22.3229
rtibia 40.4778
rfoot -27.4235 -12.41
rtoes 5.39694
lfemur 1.28306 8.00023 -10.5773
ltibia 27.9676
lfoot -18.5423 -5.11519
ltoes -2.13808
1288
root 3.3637 16.0946 -23.7002 167.808 -74.0863 -174.15
lowerback 4.71554 1.36864 7.05202
upperback -4.05531 2.41103 1.87577
thorax -6.70402 0.859878 -2.22313
lowerneck -4.5483 1.35275 4.50423
upperneck 21.9825 3.53239 -14.8839
head 7.79534 0.377743 -5.53577
rclavicle -2.62396e-014 1.03368e-014
rhumerus -20.0188 26.2825 -64.4078
rradius 86.3403
rwrist -41.7103
rhand -24.5333 1.03267
rfingers 7.12502
rthumb 1.96228 -28.9381
lclavicle -2.62396e-014 1.03368e-014
lhumerus -41.7259 -13.7683 86.4458
lradius 29.017
lwrist 20.3647
lhand -7.32311 9.37365
lfingers 7.12502
lthumb 18.56 38.5082
rfemur -8.2727 2.39616 22.2938
rtibia 40.3179
rfoot -27.2545 -12.2477
rtoes 5.34152
lfemur 1.36447 7.85618 -10.5599
ltibia 27.922
lfoot -18.373 -5.26755
ltoes -2.04085
1289
root 3.35202 16.101 -23.6808 167.899 -73.6699 -174.184
lowerback 4.71448 1.34411 6.99449
upperback -4.09504 2.3737 1.83829
thorax -6.74937 0.84093 -2.22726
lowerneck -4.54128 1.42621 4.52673
upperneck 21.7938 3.60488 -14.8003
head 7.73876 0.432335 -5.49624
rclavicle 4.13472e-014 2.54444e-014
rhumerus -19.5578 27.0016 -64.1467
rradius 86.5106
rwrist -42.0364
rhand -24.5322 0.876092
rfingers 7.12502
rthumb 1.96335 -29.0946
lclavicle 4.13472e-014 2.54444e-014
lhumerus -41.6553 -13.8804 86.3244
lradius 29.0064
lwrist 20.3417
lhand -7.38302 9.32067
lfingers 7.12502
lthumb 18.5024 38.4607
rfemur -8.27228 2.59509 22.2538
rtibia 40.1701
rfoot -27.0795 -12.0683
rtoes 5.26362
lfemur 1.45703 7.72493 -10.547
ltibia 27.8751
lfoot -18.2318 -5.41406
ltoes -1.99549
1290
root 3.34039 16.1068 -23.6604 167.986 -73.2399 -174.224
lowerback 4.72544 1.32492 6.94606
upperback -4.13045 2.34518 1.80276
thorax -6.79608 0.82599 -2.23555
lowerneck -4.52936 1.50193 4.54429
upperneck 21.6025 3.68049 -14.7138
head 7.68073 0.488505 -5.45473
rclavicle -4.23411e-014 -7.95139e-016
rhumerus -19.0905 27.696 -63.8684
rradius 86.6813
rwrist -42.4179
rhand -24.4788 0.700959
rfingers 7.12502
rthumb 2.01497 -29.2693
lclavicle -4.23411e-014 -7.95139e-016
lhumerus -41.5842 -13.9926 86.2077
lradius 29.0088
lwrist 20.3354
lhand -7.45204 9.26639
lfingers 7.12502
lthumb 18.436 38.4128
rfemur -8.27263 2.77748 22.2046
rtibia 40.0357
rfoot -26.8952 -11.8633
rtoes 5.19329
lfemur 1.56169 7.62624 -10.5362
ltibia 27.8273
lfoot -18.1163 -5.54783
ltoes -1.99243
1291
root 3.32889 16.112 -23.6392 168.073 -72.7916 -174.27
lowerback 4.74466 1.31203 6.90642
upperback -4.16314 2.32643 1.76941
thorax -6.84367 0.815501 -2.24757
lowerneck -4.51639 1.58264 4.55669
upperneck 21.4105 3.76274 -14.6213
head 7.62296 0.548032 -5.4099
rclavicle -1.98785e-015 -2.38542e-015
rhumerus -18.6176 28.3703 -63.5768
rradius 86.8558
rwrist -42.8546
rhand -24.3958 0.494222
rfingers 7.12502
rthumb 2.09513 -29.4752
lclavicle -1.98785e-015 -2.38542e-015
lhumerus -41.512 -14.104 86.0938
lradius 29.0238
lwrist 20.356
lhand -7.51437 9.23541
lfingers 7.12502
lthumb 18.3761 38.3874
rfemur -8.28215 2.94639 22.1478
rtibia 39.9154
rfoot -26.6984 -11.6392
rtoes 5.10866
lfemur 1.67615 7.56483 -10.5292
ltibia 27.7736
lfoot -18.0245 -5.65758
ltoes -2.02772
1292
root 3.31774 16.1169 -23.6173 168.136 -72.3167 -174.285
lowerback 4.77111 1.30571 6.88315
upperback -4.1982 2.31853 1.74215
thorax -6.89684 0.809333 -2.26357
lowerneck -4.47898 1.67087 4.55698
upperneck 21.2052 3.85315 -14.5149
head 7.55688 0.613048 -5.35717
rclavicle -3.61788e-014 -3.18055e-014
rhumerus -18.1404 29.0396 -63.2775
rradius 87.0349
rwrist -43.3292
rhand -24.3237 0.261115
rfingers 7.12502
rthumb 2.16471 -29.7076
lclavicle -3.61788e-014 -3.18055e-014
lhumerus -41.4471 -14.2111 85.9823
lradius 29.0498
lwrist 20.395
lhand -7.57905 9.21399
lfingers 7.12502
lthumb 18.3138 38.3719
rfemur -8.30931 3.11323 22.1001
rtibia 39.8073
rfoot -26.4895 -11.3968
rtoes 5.0291
lfemur 1.79572 7.53414 -10.5144
ltibia 27.7132
lfoot -17.9565 -5.73833
ltoes -2.03996
1293
root 3.30663 16.1215 -23.595 168.239 -71.8243 -174.343
lowerback 4.80348 1.30451 6.85305
upperback -4.23459 2.31751 1.71473
thorax -6.95447 0.8067 -2.27682
lowerneck -4.43061 1.76589 4.5458
upperneck 20.9934 3.95182 -14.3971
head 7.48724 0.682699 -5.29794
rclavicle 1.51076e-014 -2.06736e-014
rhumerus -17.6519 29.711 -62.9685
rradius 87.2117
rwrist -43.8291
rhand -24.2733 0.0241965
rfingers 7.12502
rthumb 2.21338 -29.9441
lclavicle 1.51076e-014 -2.06736e-014
lhumerus -41.3912 -14.314 85.8725
lradius 29.0887
lwrist 20.4564
lhand -7.64028 9.19433
lfingers 7.12502
lthumb 18.2549 38.3577
rfemur -8.35115 3.27069 22.0352
rtibia 39.7112
rfoot -26.2672 -11.1395
rtoes 4.94168
lfemur 1.9265 7.52706 -10.5207
ltibia 27.6395
lfoot -17.921 -5.77171
ltoes -2.09664
1294
root 3.2957 16.1258 -23.5723 168.336 -71.313 -174.387
lowerback 4.83224 1.30724 6.82919
upperback -4.27108 2.32197 1.69304
thorax -7.00972 0.806584 -2.28795
lowerneck -4.37103 1.86547 4.5269
upperneck 20.7723 4.05628 -14.2756
head 7.413 0.755531 -5.23573
rclavicle -7.93151e-014 -3.18055e-014
rhumerus -17.1428 30.3885 -62.6449
rradius 87.3856
rwrist -44.3444
rhand -24.2448 -0.206701
rfingers 7.12502
rthumb 2.24089 -30.1747
lclavicle -7.93151e-014 -3.18055e-014
lhumerus -41.3407 -14.4103 85.767
lradius 29.1308
lwrist 20.5184
lhand -7.71425 9.16654
lfingers 7.12502
lthumb 18.1838 38.3366
rfemur -8.41145 3.42545 21.9734
rtibia 39.6242
rfoot -26.0364 -10.8723
rtoes 4.85833
lfemur 2.06315 7.53524 -10.5319
ltibia 27.5492
lfoot -17.9159 -5.75272
ltoes -2.18635
